<?xml version="1.0" encoding="UTF-8"?>
<svg width="647px" height="150px" viewBox="0 0 647 150" version="1.1" xmlns="http://www.w3.org/2000/svg" xmlns:xlink="http://www.w3.org/1999/xlink">
    <!-- Generator: Sketch 47.1 (45422) - http://www.bohemiancoding.com/sketch -->
    <title>Default Logo Copy</title>
    <desc>Created with Sketch.</desc>
    <defs>
        <linearGradient x1="50%" y1="100%" x2="50%" y2="0%" id="linearGradient-1">
            <stop stop-color="#429321" offset="0%"></stop>
            <stop stop-color="#9FD047" offset="100%"></stop>
        </linearGradient>
        <polygon id="path-2" points="48.4921875 69.921875 87.515625 69.921875 87.515625 34.53125 101.167969 34.53125 101.167969 125 87.515625 125 87.515625 82.7539062 48.4921875 82.7539062 48.4921875 125 34.8398438 125 34.8398438 34.53125 48.4921875 34.53125"></polygon>
        <filter x="-9.0%" y="-5.5%" width="112.1%" height="108.8%" filterUnits="objectBoundingBox" id="filter-3">
            <feOffset dx="-2" dy="-1" in="SourceAlpha" result="shadowOffsetOuter1"></feOffset>
            <feGaussianBlur stdDeviation="1" in="shadowOffsetOuter1" result="shadowBlurOuter1"></feGaussianBlur>
            <feColorMatrix values="0 0 0 0 0   0 0 0 0 0   0 0 0 0 0  0 0 0 0.5 0" type="matrix" in="shadowBlurOuter1"></feColorMatrix>
        </filter>
    </defs>
    <g id="Page-1" stroke="none" stroke-width="1" fill="none" fill-rule="evenodd">
        <g id="Desktop">
            <g id="Default-Logo-Copy" transform="translate(0.000000, -22.000000)">
                <path d="M204.322266,109.027344 L159.333984,109.027344 C159.720705,114.18362 161.39647,118.287094 164.361328,121.337891 C167.326187,124.345718 171.128883,125.849609 175.769531,125.849609 C179.378924,125.849609 182.365223,124.990243 184.728516,123.271484 C187.04884,121.552726 189.691391,118.37307 192.65625,113.732422 L204.902344,120.564453 C203.011709,123.787125 201.013682,126.54784 198.908203,128.84668 C196.802724,131.145519 194.546887,133.036125 192.140625,134.518555 C189.734363,136.000984 187.13478,137.085934 184.341797,137.773438 C181.548814,138.460941 178.519548,138.804688 175.253906,138.804688 C165.886672,138.804688 158.367216,135.796905 152.695312,129.78125 C147.023409,123.722626 144.1875,115.68755 144.1875,105.675781 C144.1875,95.7499504 146.937473,87.7148745 152.4375,81.5703125 C157.980496,75.5116885 165.328079,72.4824219 174.480469,72.4824219 C183.718796,72.4824219 191.023411,75.4257518 196.394531,81.3125 C201.722683,87.1562792 204.386719,95.2558076 204.386719,105.611328 L204.322266,109.027344 Z M189.433594,97.1679688 C187.414052,89.4335551 182.537148,85.5664062 174.802734,85.5664062 C173.041007,85.5664062 171.386726,85.8349583 169.839844,86.3720703 C168.292961,86.9091824 166.885749,87.6826121 165.618164,88.6923828 C164.35058,89.7021535 163.26563,90.9160085 162.363281,92.3339844 C161.460933,93.7519602 160.77344,95.3632722 160.300781,97.1679688 L189.433594,97.1679688 Z M264.455078,74.2226562 L279.021484,74.2226562 L279.021484,137 L264.455078,137 L264.455078,130.425781 C258.482392,136.011747 252.058628,138.804688 245.183594,138.804688 C236.503863,138.804688 229.328153,135.668 223.65625,129.394531 C218.027316,122.992155 215.212891,115.000048 215.212891,105.417969 C215.212891,96.0077654 218.027316,88.166047 223.65625,81.8925781 C229.285184,75.6191093 236.331989,72.4824219 244.796875,72.4824219 C252.101599,72.4824219 258.654268,75.4902043 264.455078,81.5058594 L264.455078,74.2226562 Z M230.037109,105.417969 C230.037109,111.433624 231.648421,116.332012 234.871094,120.113281 C238.179704,123.937519 242.347631,125.849609 247.375,125.849609 C252.746121,125.849609 257.085921,124.001972 260.394531,120.306641 C263.703142,116.482403 265.357422,111.626983 265.357422,105.740234 C265.357422,99.8534862 263.703142,94.998066 260.394531,91.1738281 C257.085921,87.4355282 252.789089,85.5664062 247.503906,85.5664062 C242.519506,85.5664062 238.351579,87.4570123 235,91.2382812 C231.69139,95.0625191 230.037109,99.7890344 230.037109,105.417969 Z M309.828125,28.1386719 L309.828125,137 L295.326172,137 L295.326172,28.1386719 L309.828125,28.1386719 Z M341.150391,87.7578125 L341.150391,137 L326.648438,137 L326.648438,87.7578125 L320.460938,87.7578125 L320.460938,74.2226562 L326.648438,74.2226562 L326.648438,51.2128906 L341.150391,51.2128906 L341.150391,74.2226562 L352.429688,74.2226562 L352.429688,87.7578125 L341.150391,87.7578125 Z M362.933594,28.1386719 L377.435547,28.1386719 L377.435547,79.4433594 C382.591823,74.8027112 388.285125,72.4824219 394.515625,72.4824219 C401.605504,72.4824219 407.277322,74.781227 411.53125,79.3789062 C415.140643,83.37502 416.945313,89.7558155 416.945313,98.5214844 L416.945313,137 L402.443359,137 L402.443359,99.875 C402.443359,94.8476311 401.551767,91.206066 399.768555,88.9501953 C397.985343,86.6943247 395.117207,85.5664062 391.164062,85.5664062 C386.093725,85.5664062 382.527354,87.1347499 380.464844,90.2714844 C378.445302,93.4511878 377.435547,98.9081645 377.435547,106.642578 L377.435547,137 L362.933594,137 L362.933594,28.1386719 Z M469.794922,94.5898438 L500.603516,137 L482.234375,137 L453.810547,96.265625 L451.103516,96.265625 L451.103516,137 L436.085938,137 L436.085938,37.484375 L453.681641,37.484375 C466.830144,37.484375 476.326143,39.9550534 482.169922,44.8964844 C488.615267,50.3965119 491.837891,57.658158 491.837891,66.6816406 C491.837891,73.7285509 489.81838,79.787084 485.779297,84.8574219 C481.740214,89.9277597 476.412142,93.1718679 469.794922,94.5898438 Z M451.103516,83.1816406 L455.873047,83.1816406 C470.095774,83.1816406 477.207031,77.7461481 477.207031,66.875 C477.207031,56.6913553 470.289132,51.5996094 456.453125,51.5996094 L451.103516,51.5996094 L451.103516,83.1816406 Z M554.806641,74.2226562 L569.373047,74.2226562 L569.373047,137 L554.806641,137 L554.806641,130.425781 C548.833955,136.011747 542.410191,138.804688 535.535156,138.804688 C526.855425,138.804688 519.679716,135.668 514.007812,129.394531 C508.378878,122.992155 505.564453,115.000048 505.564453,105.417969 C505.564453,96.0077654 508.378878,88.166047 514.007812,81.8925781 C519.636747,75.6191093 526.683551,72.4824219 535.148438,72.4824219 C542.453162,72.4824219 549.00583,75.4902043 554.806641,81.5058594 L554.806641,74.2226562 Z M520.388672,105.417969 C520.388672,111.433624 521.999984,116.332012 525.222656,120.113281 C528.531267,123.937519 532.699194,125.849609 537.726562,125.849609 C543.097683,125.849609 547.437483,124.001972 550.746094,120.306641 C554.054704,116.482403 555.708984,111.626983 555.708984,105.740234 C555.708984,99.8534862 554.054704,94.998066 550.746094,91.1738281 C547.437483,87.4355282 543.140651,85.5664062 537.855469,85.5664062 C532.871069,85.5664062 528.703142,87.4570123 525.351562,91.2382812 C522.042952,95.0625191 520.388672,99.7890344 520.388672,105.417969 Z M605.464844,125.333984 L577.234375,74.2226562 L594.056641,74.2226562 L613.263672,110.316406 L631.181641,74.2226562 L647.552734,74.2226562 L597.537109,171.160156 L580.972656,171.160156 L605.464844,125.333984 Z" id="ealthRay-Shape" fill="#000000"></path>
                <g id="Symbol" transform="translate(0.000000, 13.000000)">
                    <rect id="Rectangle-Copy" fill="url(#linearGradient-1)" x="0" y="9" width="138" height="138" rx="26"></rect>
                    <g id="H-Shape">
                        <use fill="black" fill-opacity="1" filter="url(#filter-3)" xlink:href="#path-2"></use>
                        <use fill="#FFFFFF" fill-rule="evenodd" xlink:href="#path-2"></use>
                    </g>
                </g>
            </g>
        </g>
    </g>
</svg>